:SAMPLES-PER-SECOND 30
:FULLY-SPECIFIED
:DEGREES
166
root  20.3959 37.8799 -7.99331 -157.154 79.1428 -149.527
RightUpLeg  -18.1685 -23.1497 4.29177
RightLeg  31.2685 -0.0713805 -0.307297
RightFoot  -4.30452 0.233073 -4.25942
RightToes  0.000482159 0.542163 -0.142577
Spine  17.952 -2.52043 11.7375
Spine1  16.135 0.716803 -2.20417
HEad  5.6663 13.1156 -10.4763
LeftShoulder1  9.19631 -14.223 -45.2174
LeftArm  -11.9387 20.885 -20.9211
LeftForeArm  50.2144 -78.2727 -68.1871
LeftHand  -0.25398 0.0180481 5.50724
RightShoulder  5.49682 9.91428 35.0043
RightArm  -9.71107 -15.7999 23.9425
RightForeArm  25.2498 77.5761 92.5988
RightHand  1.05557 -11.2815 -21.2912
LeftUpLeg  -13.8918 0.88416 9.49684
LeftLeg  71.5247 1.71674 6.72135
LeftFoot  5.61346 0.117267 -1.0358
LeftToes  1.06247e-005 4.65855e-005 -8.18504e-006
167
root  21.843 38.2534 -7.78099 -160.341 79.1424 -153.728
RightUpLeg  -16.0929 -24.1355 3.58154
RightLeg  30.487 0.510869 0.0667561
RightFoot  -6.25645 0.129399 -3.8711
RightToes  0.000482159 0.542163 -0.142577
Spine  17.5353 -1.59838 11.2039
Spine1  15.8812 1.67198 -2.85539
HEad  6.88734 12.4492 -10.4127
LeftShoulder1  9.22818 -14.2466 -45.3178
LeftArm  -12.4872 19.8242 -20.9864
LeftForeArm  45.8072 -77.8546 -63.4191
LeftHand  -0.25398 0.0180481 5.50724
RightShoulder  5.55882 10.0014 35.1957
RightArm  -8.87521 -13.5055 23.8137
RightForeArm  14.0549 77.4565 81.4447
RightHand  1.04941 -11.3306 -21.0175
LeftUpLeg  -19.2042 2.59951 7.72235
LeftLeg  69.2938 1.31085 4.68594
LeftFoot  3.24205 0.215582 -1.81719
LeftToes  1.06247e-005 4.65855e-005 -8.18504e-006
168
root  23.289 38.6216 -7.60668 -163.212 78.768 -157.145
RightUpLeg  -12.9879 -25.5052 2.79042
RightLeg  28.818 0.979443 0.327303
RightFoot  -7.92279 0.0533299 -3.58021
RightToes  0.000482159 0.542163 -0.142577
Spine  17.573 -0.963971 10.7772
Spine1  15.3612 2.35627 -3.68057
HEad  7.56963 12.1663 -10.6934
LeftShoulder1  9.19251 -14.1724 -45.3324
LeftArm  -13.6011 19.3702 -21.3912
LeftForeArm  44.1072 -77.6285 -61.0956
LeftHand  -0.25398 0.0180481 5.50724
RightShoulder  5.65105 10.1845 35.3165
RightArm  -8.06991 -11.4829 23.7338
RightForeArm  4.50755 76.9492 71.635
RightHand  1.13642 -12.0868 -20.2149
LeftUpLeg  -22.9125 4.69993 5.74381
LeftLeg  64.0179 1.1724 3.27927
LeftFoot  1.13848 0.138897 -1.32612
LeftToes  1.06247e-005 4.65855e-005 -8.18504e-006
169
root  24.7242 38.9473 -7.45796 -165.807 78.1297 -160.243
RightUpLeg  -9.7049 -26.7525 1.96943
RightLeg  26.7518 1.42756 0.559629
RightFoot  -9.36408 -0.00885235 -3.13239
RightToes  0.000482159 0.542163 -0.142577
Spine  17.3895 -0.405071 10.3023
Spine1  15.0406 2.92359 -4.587
HEad  7.77832 11.916 -10.7804
LeftShoulder1  9.11594 -14.1088 -45.1085
LeftArm  -14.6703 19.3074 -21.9153
LeftForeArm  43.9855 -77.5634 -60.2542
LeftHand  -0.25398 0.0180481 5.50724
RightShoulder  5.71469 10.2857 35.472
RightArm  -7.2588 -9.68261 23.7051
RightForeArm  -3.18419 76.1509 63.123
RightHand  1.14059 -12.5963 -18.9203
LeftUpLeg  -25.396 7.35674 3.60653
LeftLeg  56.0393 1.04966 2.18823
LeftFoot  -1.39188 0.148541 -1.64815
LeftToes  1.06247e-005 4.65855e-005 -8.18504e-006
170
root  26.153 39.1243 -7.36019 -166.92 77.2315 -161.904
RightUpLeg  -6.81411 -27.6465 1.35004
RightLeg  25.3374 1.51432 0.794438
RightFoot  -10.8976 -0.0637534 -2.66106
RightToes  0.000482159 0.542163 -0.142577
Spine  16.8401 0.0839582 10.2331
Spine1  14.9633 3.46862 -5.48048
HEad  7.96953 11.5 -10.6806
LeftShoulder1  9.03859 -14.1 -44.7329
LeftArm  -15.3549 19.2769 -22.4486
LeftForeArm  43.8197 -77.4979 -59.4788
LeftHand  -0.25398 0.0180481 5.50724
RightShoulder  5.74474 10.3026 35.6355
RightArm  -6.60781 -8.1594 23.7924
RightForeArm  -9.2316 75.1416 55.917
RightHand  1.03475 -12.4263 -17.7115
LeftUpLeg  -26.8135 10.9954 1.459
LeftLeg  45.7721 0.882765 1.35566
LeftFoot  -2.44782 0.295547 -3.57528
LeftToes  1.06247e-005 4.65855e-005 -8.18504e-006
171
root  27.5801 39.1756 -7.31673 -166.597 76.1326 -161.983
RightUpLeg  -3.97758 -27.8042 1.04505
RightLeg  24.3413 0.569743 0.813208
RightFoot  -12.4556 -0.109904 -2.56388
RightToes  0.000482159 0.542163 -0.142577
Spine  16.1854 0.498589 10.5466
Spine1  15.134 3.98055 -6.22804
HEad  8.25791 10.9736 -10.7167
LeftShoulder1  9.00308 -14.1057 -44.5339
LeftArm  -15.7656 19.0398 -22.8852
LeftForeArm  43.0195 -77.3675 -58.3322
LeftHand  -0.25398 0.0180481 5.50724
RightShoulder  5.76916 10.3517 35.6637
RightArm  -6.21613 -6.88239 23.9131
RightForeArm  -13.8761 74.0863 50.3899
RightHand  0.956845 -12.231 -16.9464
LeftUpLeg  -27.078 16.5145 -1.22152
LeftLeg  33.6525 0.362968 0.77714
LeftFoot  -1.77308 0.452141 -5.27646
LeftToes  1.06247e-005 4.65855e-005 -8.18504e-006
172
root  28.9986 39.1513 -7.32097 -165.433 75.0775 -160.876
RightUpLeg  -0.81511 -27.0565 1.1053
RightLeg  23.1591 -1.15845 0.559823
RightFoot  -14.1768 -0.152139 -2.32211
RightToes  0.000482159 0.542163 -0.142577
Spine  15.6707 0.838539 11.1035
Spine1  15.6882 4.58142 -6.9492
HEad  8.51778 10.5346 -10.8928
LeftShoulder1  9.01464 -14.0935 -44.6262
LeftArm  -16.0984 18.6599 -23.1631
LeftForeArm  41.845 -77.1923 -56.9898
LeftHand  -0.25398 0.0180481 5.50724
RightShoulder  5.80545 10.4633 35.5921
RightArm  -5.87977 -5.65205 23.9378
RightForeArm  -17.9829 73.0676 46.235
RightHand  0.964762 -12.3851 -16.7179
LeftUpLeg  -26.1936 23.7957 -4.34448
LeftLeg  20.4035 -0.756536 -0.389699
LeftFoot  -0.87352 0.565925 -6.11789
LeftToes  1.06247e-005 4.65855e-005 -8.18504e-006
173
root  30.445 38.9969 -7.38365 -163.791 74.0292 -158.948
RightUpLeg  2.4997 -26.3005 1.40197
RightLeg  22.3458 -2.54863 0.249555
RightFoot  -16.3228 -0.158419 -1.14111
RightToes  0.000482159 0.542163 -0.142577
Spine  15.2708 1.01454 11.9405
Spine1  16.4887 5.21191 -7.74132
HEad  8.75815 10.3643 -10.9813
LeftShoulder1  9.00692 -14.05 -44.7015
LeftArm  -16.453 18.3397 -23.4597
LeftForeArm  40.4179 -76.96 -55.3314
LeftHand  -0.25398 0.0180481 5.50724
RightShoulder  5.86255 10.6004 35.5925
RightArm  -5.34881 -4.28623 23.9478
RightForeArm  -22.5243 71.9284 42.4846
RightHand  0.996753 -12.4588 -17.0548
LeftUpLeg  -23.0173 22.7334 -2.80914
LeftLeg  6.84914 7.96385 -4.56635
LeftFoot  0.398614 0.713314 -6.95161
LeftToes  1.06247e-005 4.65855e-005 -8.18504e-006
